<svg xmlns="http://www.w3.org/2000/svg" viewBox="0 0 320 220" fill="none">
  <defs>
    <linearGradient id="pdfBg" x1="0" y1="0" x2="1" y2="1">
      <stop offset="0%" stop-color="#0b1d33"/>
      <stop offset="50%" stop-color="#3d1a1a"/>
      <stop offset="100%" stop-color="#5c2a2a"/>
    </linearGradient>
    <linearGradient id="pdfGlow" x1="0.5" y1="0" x2="0.5" y2="1">
      <stop offset="0%" stop-color="#d4af37" stop-opacity="0.12"/>
      <stop offset="100%" stop-color="#d4af37" stop-opacity="0"/>
    </linearGradient>
  </defs>
  <rect width="320" height="220" rx="8" fill="url(#pdfBg)"/>
  <ellipse cx="160" cy="120" rx="100" ry="80" fill="url(#pdfGlow)"/>
  <!-- Document body -->
  <path d="M112 48h68l36 36v120a8 8 0 0 1-8 8H112a8 8 0 0 1-8-8V56a8 8 0 0 1 8-8z" fill="#0b1d33" stroke="#d4af37" stroke-width="2.5"/>
  <!-- Folded corner -->
  <path d="M180 48v36h36" fill="#132a4a" stroke="#d4af37" stroke-width="2.5"/>
  <path d="M180 48v28a8 8 0 0 0 8 8h28" fill="none" stroke="#c9a96e" stroke-width="2"/>
  <!-- Text lines -->
  <rect x="124" y="108" width="80" height="4" rx="2" fill="#d4af37" opacity="0.6"/>
  <rect x="124" y="120" width="60" height="4" rx="2" fill="#c9a96e" opacity="0.4"/>
  <rect x="124" y="132" width="72" height="4" rx="2" fill="#d4af37" opacity="0.35"/>
  <rect x="124" y="144" width="50" height="4" rx="2" fill="#c9a96e" opacity="0.3"/>
  <rect x="124" y="160" width="64" height="4" rx="2" fill="#d4af37" opacity="0.25"/>
  <!-- Decorative dots -->
  <circle cx="55" cy="40" r="2" fill="#d4af37" opacity="0.25"/>
  <circle cx="275" cy="55" r="1.5" fill="#d4af37" opacity="0.2"/>
  <circle cx="265" cy="185" r="2" fill="#d4af37" opacity="0.2"/>
  <circle cx="70" cy="190" r="1.5" fill="#d4af37" opacity="0.15"/>
</svg>